<svg height="50" width="50" xmlns="http://www.w3.org/2000/svg"><path d="M25 0C11.193 0 0 11.193 0 25s11.193 25 25 25 25-11.193 25-25S38.807 0 25 0zm0 3C12.85 3 3 12.85 3 25s9.85 22 22 22 22-9.85 22-22S37.15 3 25 3zm10.951 31.51c.02-.102.033-.206.049-.309V15.8c-.015-.101-.029-.202-.047-.303-.193-1.03-1.006-1.83-2.005-1.973-.041-.006-.082-.015-.123-.023h-17.65c-.107.02-.214.035-.319.06-.975.232-1.696 1.053-1.835 2.085-.005.043-.014.086-.021.13v18.452c.02.117.036.235.061.351.216.996 1.03 1.769 1.997 1.899.047.006.094.015.14.023h17.603c.115-.02.23-.037.342-.063.899-.2 1.633-.983 1.808-1.927zm-19.57-1.411c0 .49.405.91.873.91h15.488c.473 0 .876-.42.876-.913V22.827h-2.1c.296.99.388 1.998.271 3.025a7.247 7.247 0 0 1-.949 2.867 6.994 6.994 0 0 1-2.004 2.2 6.588 6.588 0 0 1-7.172.322 6.844 6.844 0 0 1-2.657-2.798c-.93-1.79-1.079-3.669-.533-5.618H16.38V33.099zm8.517-3.44c2.49.055 4.505-2.026 4.558-4.556.054-2.61-1.96-4.765-4.456-4.764-2.44-.001-4.423 2.051-4.458 4.59-.035 2.608 1.962 4.675 4.356 4.73zm8.72-11.177v-2.179c0-.52-.394-.935-.892-.935h-2.078c-.496 0-.892.416-.892.936 0 .72-.002 1.44.002 2.16 0 .108.02.22.053.321.124.383.46.618.871.62.335.001.669 0 1.003 0 .362-.004.725.003 1.088-.006.465-.012.845-.43.845-.917zm0 0" fill="#000" fill-rule="evenodd"/></svg>